<?xml version="1.0" encoding="UTF-8"?>
<svg version="1.1" xmlns="http://www.w3.org/2000/svg" width="293" height="390">
<path d="M0 0 C0.02715383 1.74991334 0.04646551 3.49994945 0.0625 5.25 C0.07410156 6.22453125 0.08570312 7.1990625 0.09765625 8.203125 C0 11 0 11 -0.46557617 12.77709961 C-1.15182778 15.63151756 -1.38647226 18.43897453 -1.6484375 21.36328125 C-1.76509766 22.63051025 -1.88175781 23.89773926 -2.00195312 25.20336914 C-2.06261963 25.87304718 -2.12328613 26.54272522 -2.18579102 27.23269653 C-3.10782264 37.36775733 -4.11018543 47.47901026 -5.5 57.5625 C-7.09157182 69.13499091 -8.22688677 80.74217251 -9.3515625 92.3671875 C-9.46540283 93.51356689 -9.57924316 94.65994629 -9.6965332 95.84106445 C-9.88236246 97.77545285 -10.05369335 99.71138778 -10.19995117 101.64916992 C-10.61126906 106.56072868 -11.68134025 110.15482131 -14.0625 114.5625 C-14.61035156 115.59503906 -15.15820312 116.62757813 -15.72265625 117.69140625 C-16.14417969 118.45324219 -16.56570312 119.21507812 -17 120 C-17.66 120 -18.32 120 -19 120 C-19 120.66 -19 121.32 -19 122 C-24.29411765 126 -24.29411765 126 -28 126 C-27.88617347 127.95901454 -27.75858875 129.9172338 -27.625 131.875 C-27.52058594 133.51082031 -27.52058594 133.51082031 -27.4140625 135.1796875 C-27.26746509 138.13046474 -27.26746509 138.13046474 -25 140 C-24.73279714 142.99289412 -24.59095002 145.89777003 -24.53491211 148.89672852 C-24.51052567 149.81890671 -24.48613922 150.7410849 -24.46101379 151.69120789 C-24.22340837 161.34965292 -24.11941701 171.01138862 -24.02514648 180.67211914 C-23.97615219 185.25491363 -23.88573224 189.83400421 -23.75854492 194.4152832 C-23.60526784 199.94885541 -23.52610293 205.47892667 -23.49896431 211.0145092 C-23.47634697 213.12036456 -23.42795404 215.22611178 -23.35291862 217.33075142 C-22.80993102 233.38034037 -22.80993102 233.38034037 -26.45027542 237.73475266 C-29.99264207 240.66165479 -33.88609447 242.49777504 -38.13508797 244.17757988 C-40.32349028 245.07791098 -40.32349028 245.07791098 -43.2986908 247.21168518 C-46 249 -46 249 -49 249 C-49 249.66 -49 250.32 -49 251 C-51.05859375 251.765625 -51.05859375 251.765625 -54 252 C-56.55095951 250.67922829 -58.72844477 249.37864087 -61.0625 247.75 C-61.67416016 247.34136719 -62.28582031 246.93273437 -62.91601562 246.51171875 C-64.6261179 245.36179052 -66.31495294 244.18622256 -68 243 C-68.80308594 242.44828125 -69.60617188 241.8965625 -70.43359375 241.328125 C-70.95050781 240.88984375 -71.46742187 240.4515625 -72 240 C-72 239.34 -72 238.68 -72 238 C-72.56203125 237.7628125 -73.1240625 237.525625 -73.703125 237.28125 C-76.51894042 235.71052303 -78.47955416 233.78528536 -80.75 231.5 C-81.54921875 230.7059375 -82.3484375 229.911875 -83.171875 229.09375 C-85 227 -85 227 -85 225 C-85.66 225 -86.32 225 -87 225 C-87 224.34 -87 223.68 -87 223 C-87.66 223 -88.32 223 -89 223 C-110.34872743 195.937609 -121.02895495 164.46999066 -120 130 C-119.95746094 128.34291016 -119.95746094 128.34291016 -119.9140625 126.65234375 C-118.67748541 99.12378226 -108.79681949 73.74784707 -92 52 C-91.0361155 50.6079942 -90.0769985 49.21266154 -89.125 47.8125 C-88.073125 46.4203125 -88.073125 46.4203125 -87 45 C-86.34 45 -85.68 45 -85 45 C-85 44.34 -85 43.68 -85 43 C-84.34 43 -83.68 43 -83 43 C-83 42.34 -83 41.68 -83 41 C-82.34 41 -81.68 41 -81 41 C-81 40.34 -81 39.68 -81 39 C-80.34 39 -79.68 39 -79 39 C-78.67 38.01 -78.34 37.02 -78 36 C-77.34 36 -76.68 36 -76 36 C-76 35.34 -76 34.68 -76 34 C-74.59814453 32.67480469 -74.59814453 32.67480469 -72.6328125 31.171875 C-71.91722168 30.62225098 -71.20163086 30.07262695 -70.46435547 29.50634766 C-69.69236816 28.92675293 -68.92038086 28.3471582 -68.125 27.75 C-67.34141113 27.15880371 -66.55782227 26.56760742 -65.75048828 25.95849609 C-53.84382363 17.06237235 -40.71244234 9.5066167 -26.26171875 5.61328125 C-23.94457282 4.98497052 -21.70352657 4.22924422 -19.4375 3.4375 C-13.02070908 1.28345358 -6.8195797 -0.34972204 0 0 Z " fill="#2a3f3f" transform="translate(127,111)"/>
<path d="M0 0 C27.22821313 2.30747569 52.1639071 14.75511083 73 32 C73.86238281 32.68449219 74.72476563 33.36898437 75.61328125 34.07421875 C78.28044879 36.22628683 80.67814539 38.47912928 83 41 C83 41.66 83 42.32 83 43 C83.66 43 84.32 43 85 43 C85 43.66 85 44.32 85 45 C85.66 45 86.32 45 87 45 C91 50.41176471 91 50.41176471 91 53 C91.66 53 92.32 53 93 53 C94.5013038 55.01193056 95.85558399 57.00380043 97.1875 59.125 C97.58606201 59.75301514 97.98462402 60.38103027 98.39526367 61.02807617 C102.4092502 67.46729652 105.76796937 74.13828053 109 81 C109.38929688 81.78761719 109.77859375 82.57523437 110.1796875 83.38671875 C118.68321451 101.21775794 120.53947466 121.50534764 120 141 C119.97164063 142.13824219 119.94328125 143.27648437 119.9140625 144.44921875 C118.63774175 173.04488121 107.10063352 198.43580667 90 221 C89.45085937 221.78761719 88.90171875 222.57523438 88.3359375 223.38671875 C87.89507812 223.91910156 87.45421875 224.45148438 87 225 C86.34 225 85.68 225 85 225 C84.7628125 225.56203125 84.525625 226.1240625 84.28125 226.703125 C82.71052303 229.51894042 80.78528536 231.47955416 78.5 233.75 C77.30890625 234.94882812 77.30890625 234.94882812 76.09375 236.171875 C74 238 74 238 72 238 C72 238.66 72 239.32 72 240 C70.18279604 241.54962215 68.29394128 243.01580263 66.375 244.4375 C65.33085937 245.21996094 64.28671875 246.00242187 63.2109375 246.80859375 C55.38387485 252.15042118 55.38387485 252.15042118 51.125 251.6875 C50.073125 251.3471875 50.073125 251.3471875 49 251 C49 250.34 49 249.68 49 249 C48.319375 248.938125 47.63875 248.87625 46.9375 248.8125 C43.51356867 247.86545516 41.42169955 246.31462589 38.6484375 244.15625 C36.88688064 242.803469 36.88688064 242.803469 34 242 C34 241.34 34 240.68 34 240 C33.443125 239.896875 32.88625 239.79375 32.3125 239.6875 C29.26509514 238.78151477 27.46041286 238.0842822 25 236 C24.23158367 232.9758685 24.34851404 229.98371983 24.40063477 226.87866211 C24.39669205 225.94509384 24.39274933 225.01152557 24.38868713 224.04966736 C24.3819644 220.95835019 24.41116454 217.86850324 24.44140625 214.77734375 C24.44565475 212.6340819 24.44798474 210.49081545 24.44847107 208.34754944 C24.45464217 203.85412778 24.47737141 199.3612035 24.51293945 194.86791992 C24.55823964 189.09830465 24.57296632 183.32914004 24.57667637 177.55936337 C24.58109776 173.13366724 24.59638842 168.70806642 24.6155529 164.28241158 C24.62445329 162.15447336 24.63117442 160.02652491 24.63571358 157.89857292 C24.64472248 154.92952112 24.66708323 151.9608837 24.69360352 148.99194336 C24.69460052 147.66329254 24.69460052 147.66329254 24.69561768 146.30780029 C24.77083125 140.22916875 24.77083125 140.22916875 27 138 C27.46396693 135.10776497 27.46396693 135.10776497 27.625 131.875 C27.69976562 130.77929688 27.77453125 129.68359375 27.8515625 128.5546875 C27.90054688 127.71164063 27.94953125 126.86859375 28 126 C27.41089844 125.87496094 26.82179687 125.74992187 26.21484375 125.62109375 C21.59093589 124.32444234 18.22000045 121.74377027 15.5078125 117.8671875 C9.68511524 107.15204638 9.54670068 94.47026816 8.4375 82.5625 C8.18935585 79.9176465 7.93726944 77.2732429 7.68359375 74.62890625 C7.57587646 73.47463135 7.46815918 72.32035645 7.35717773 71.13110352 C7.04212588 68.36928528 6.56220482 65.71910576 6 63 C5.70503588 59.46043056 5.49519052 55.92029999 5.28125 52.375 C5.04080138 49.48961661 4.573109 46.82915712 4 44 C3.84949703 42.0434614 3.72762419 40.08463331 3.625 38.125 C3.12480035 30.39240539 2.10147076 22.75491907 1.01611328 15.08447266 C0.31420076 9.9992943 -0.16421877 5.13362145 0 0 Z " fill="#2a3f3f" transform="translate(163,111)"/>
<path d="M0 0 C2.64 0 5.28 0 8 0 C8 3.96 8 7.92 8 12 C11.96 12 15.92 12 20 12 C20 14.31 20 16.62 20 19 C16.37 19.33 12.74 19.66 9 20 C8.97317208 23.81254623 8.95324523 27.62490612 8.9375 31.4375 C8.92493164 33.07041992 8.92493164 33.07041992 8.91210938 34.73632812 C8.90888672 35.77080078 8.90566406 36.80527344 8.90234375 37.87109375 C8.89710693 38.82943115 8.89187012 39.78776855 8.88647461 40.77514648 C8.7494687 42.97285339 8.7494687 42.97285339 10 44 C10.1328125 45.8125 10.1328125 45.8125 10.125 48 C10.12886719 49.0828125 10.12886719 49.0828125 10.1328125 50.1875 C10 52 10 52 9 53 C9.05685957 54.39439513 9.18970491 55.78573903 9.3515625 57.171875 C9.50286621 58.5340918 9.50286621 58.5340918 9.65722656 59.92382812 C9.7703418 60.93896484 9.88345703 61.95410156 10 63 C10.21957852 65.2548767 10.43552188 67.51010941 10.6484375 69.765625 C10.8905488 72.26042406 11.13273788 74.75521558 11.375 77.25 C11.4884375 78.45140625 11.601875 79.6528125 11.71875 80.890625 C12.46009602 88.46181836 13.39987446 95.97972297 14.46875 103.51171875 C16.10809906 115.16286099 17.15334861 126.83965201 18.125 138.5625 C18.37768892 141.57326676 18.63202961 144.58387137 18.88961792 147.59422302 C19.04740536 149.44150828 19.20230331 151.28904348 19.35379028 153.13685608 C19.69503827 157.16221885 20.1259419 161.04846153 21 165 C21.17376319 167.06033492 21.31666171 169.12338476 21.4375 171.1875 C21.96630669 179.08654991 22.80568492 186.93226233 23.74267578 194.79248047 C23.98872227 196.90325122 24.21312243 199.0153348 24.43359375 201.12890625 C25.53984103 210.83059697 27.13412758 219.64370812 34 227 C33 228 33 228 30.67784119 228.12025452 C29.64969803 228.11803391 28.62155487 228.11581329 27.56225586 228.11352539 C25.82056374 228.11341209 25.82056374 228.11341209 24.04368591 228.11329651 C22.14840904 228.10555458 22.14840904 228.10555458 20.21484375 228.09765625 C18.92888809 228.0962413 17.64293243 228.09482635 16.31800842 228.09336853 C12.89356557 228.08954418 9.46916491 228.07971462 6.04473877 228.06866455 C2.55261811 228.05844864 -0.93950934 228.05387053 -4.43164062 228.04882812 C-11.28777778 228.03809227 -18.14388687 228.02101684 -25 228 C-25.33 227.34 -25.66 226.68 -26 226 C-25.4225 225.54625 -24.845 225.0925 -24.25 224.625 C-15.83193216 214.80392086 -15.99581018 200.01305634 -15.24609375 187.7421875 C-15 185 -15 185 -14.50390625 183.06640625 C-13.77657193 180.08377173 -13.68296269 177.12385788 -13.5 174.0625 C-13.108787 167.53064002 -13.108787 167.53064002 -12.51855469 164.65161133 C-11.96428698 161.81738273 -11.67299638 159.04100037 -11.421875 156.1640625 C-11.31560791 154.97868896 -11.20934082 153.79331543 -11.09985352 152.57202148 C-10.98440186 151.26950439 -10.8689502 149.9669873 -10.75 148.625 C-7.81527481 116.34876139 -4.40165356 84.11079073 0 52 C-0.66 52 -1.32 52 -2 52 C-2 49.36 -2 46.72 -2 44 C-1.34 44 -0.68 44 0 44 C0 35.75 0 27.5 0 19 C-3.96 19 -7.92 19 -12 19 C-12 16.69 -12 14.38 -12 12 C-8.04 12 -4.08 12 0 12 C0 8.04 0 4.08 0 0 Z " fill="#2a3f3f" transform="translate(141,6)"/>
<path d="M0 0 C25.74 0 51.48 0 78 0 C78 1.65 78 3.3 78 5 C77.34 5.66 76.68 6.32 76 7 C75.78214097 9.9206003 75.68855463 12.74913191 75.68115234 15.67236328 C75.67110672 16.56998383 75.6610611 17.46760437 75.65071106 18.39242554 C75.61974525 21.36838116 75.60280683 24.34424629 75.5859375 27.3203125 C75.56723662 29.38012478 75.54766403 31.43992931 75.5272522 33.49972534 C75.47581087 38.92811527 75.4362495 44.35653008 75.39910889 49.78503418 C75.3591443 55.3215964 75.30801764 60.8580541 75.2578125 66.39453125 C75.16091119 77.26294754 75.07655203 88.13142268 75 99 C70.81187286 98.11646483 67.70325425 96.03760311 64.1875 93.6875 C59.54315632 90.61321798 54.86196727 87.72046056 50 85 C50 84.34 50 83.68 50 83 C49.46375 82.9175 48.9275 82.835 48.375 82.75 C46 82 46 82 43.0625 79.8125 C42.051875 79.214375 41.04125 78.61625 40 78 C37.33333333 78.58333333 37.33333333 78.58333333 35 80 C33.67323492 80.35858516 32.34164079 80.7018576 31 81 C31 81.66 31 82.32 31 83 C30.28650391 83.36738281 30.28650391 83.36738281 29.55859375 83.7421875 C23.50398824 86.97577055 17.86244827 90.69857651 12.23022461 94.60888672 C9.06561196 96.77247786 6.76850263 98.05787434 3 99 C2.67 68.64 2.34 38.28 2 7 C1.34 6.67 0.68 6.34 0 6 C0 4.02 0 2.04 0 0 Z M34 18 C31.39171365 22.61042165 31.7437894 27.31844977 31.8046875 32.45703125 C31.8075174 33.35999435 31.81034729 34.26295746 31.81326294 35.19328308 C31.82442393 38.06649234 31.84952103 40.93938555 31.875 43.8125 C31.88503507 45.76496944 31.89416 47.71744379 31.90234375 49.66992188 C31.92434992 54.44673566 31.95885169 59.22331431 32 64 C36.62 64 41.24 64 46 64 C46.12372902 57.82535087 46.21440144 51.65142544 46.2746582 45.47583008 C46.29978051 43.3757673 46.33388458 41.27579177 46.37719727 39.17602539 C46.43794871 36.1548916 46.46623263 33.13491504 46.48828125 30.11328125 C46.51408768 29.17664139 46.5398941 28.24000153 46.56648254 27.27497864 C46.56847278 22.6345739 46.50364542 20.65576647 43.59448242 16.86791992 C39.51554381 13.93125301 37.89077389 15.17918893 34 18 Z M13 18 C10.80984639 19.77651455 10.80984639 19.77651455 10.75949097 22.06277466 C10.76393219 22.91104828 10.76837341 23.7593219 10.77294922 24.63330078 C10.77310028 25.59414581 10.77325134 26.55499084 10.77340698 27.54495239 C10.78372955 28.58457123 10.79405212 29.62419006 10.8046875 30.6953125 C10.8075174 31.75789276 10.81034729 32.82047302 10.81326294 33.91525269 C10.82448361 37.31861499 10.84959163 40.72171686 10.875 44.125 C10.88502736 46.42838162 10.89415363 48.73176736 10.90234375 51.03515625 C10.92442907 56.69019345 10.95792511 62.34507813 11 68 C13.31 67.34 15.62 66.68 18 66 C18.0505939 59.48554795 18.08568856 52.97114632 18.10986328 46.45654297 C18.11993825 44.23907579 18.13359859 42.02162195 18.15087891 39.80419922 C18.17506163 36.62203688 18.18646797 33.44004976 18.1953125 30.2578125 C18.20563507 29.26194122 18.21595764 28.26606995 18.22659302 27.24002075 C18.22681961 25.85881546 18.22681961 25.85881546 18.22705078 24.44970703 C18.231492 23.6369632 18.23593323 22.82421936 18.24050903 21.98684692 C18.1792112 19.76787325 18.1792112 19.76787325 16 18 C15.01 18 14.02 18 13 18 Z M62 18 C59.8207888 19.76787325 59.8207888 19.76787325 59.75949097 21.98684692 C59.76393219 22.79959076 59.76837341 23.61233459 59.77294922 24.44970703 C59.77310028 25.37051056 59.77325134 26.29131409 59.77340698 27.24002075 C59.78372955 28.23589203 59.79405212 29.23176331 59.8046875 30.2578125 C59.8075174 31.27600067 59.81034729 32.29418884 59.81326294 33.3432312 C59.8244823 36.603939 59.84959004 39.86437484 59.875 43.125 C59.88502753 45.33202729 59.89415377 47.53905888 59.90234375 49.74609375 C59.92442732 55.16415572 59.95792205 60.58205843 60 66 C62.31 66.33 64.62 66.66 67 67 C67.0505916 60.34313186 67.0856876 53.68631306 67.10986328 47.02929688 C67.11993859 44.76332751 67.13359918 42.49737119 67.15087891 40.23144531 C67.17506011 36.97978499 67.18646763 33.72829613 67.1953125 30.4765625 C67.20563507 29.45881744 67.21595764 28.44107239 67.22659302 27.39248657 C67.22681961 25.98125015 67.22681961 25.98125015 67.22705078 24.54150391 C67.231492 23.71099518 67.23593323 22.88048645 67.24050903 22.02481079 C67.1847007 19.77218993 67.1847007 19.77218993 65 18 C64.01 18 63.02 18 62 18 Z " fill="#2a3f3f" transform="translate(106,242)"/>
<path d="M0 0 C2.40247587 1.24501881 4.60879291 2.48907578 6.875 3.9375 C7.76445312 4.47793945 7.76445312 4.47793945 8.671875 5.02929688 C10.15535978 5.9573294 11.58365359 6.97241336 13 8 C13 8.66 13 9.32 13 10 C13.57274658 10.1131958 14.14549316 10.2263916 14.7355957 10.34301758 C17.24249562 11.07035641 19.03390799 12.10610724 21.23046875 13.51171875 C22.03419922 14.02283203 22.83792969 14.53394531 23.66601562 15.06054688 C24.91415039 15.86588867 24.91415039 15.86588867 26.1875 16.6875 C27.00025391 17.20505859 27.81300781 17.72261719 28.65039062 18.25585938 C32.73115721 20.86274527 36.77795708 23.51362432 40.796875 26.21484375 C43.82106559 28.23949402 46.85712299 30.14511399 50.0625 31.875 C50.81660156 32.28492188 51.57070312 32.69484375 52.34765625 33.1171875 C52.89292969 33.40851563 53.43820313 33.69984375 54 34 C54 34.66 54 35.32 54 36 C54.99 36 55.98 36 57 36 C57 36.99 57 37.98 57 39 C21.22920673 54.16946604 -16.11281084 58.55411692 -53.09130859 44.1875 C-57.10616375 42.55625859 -61.0644064 40.81498849 -65 39 C-65 38.01 -65 37.02 -65 36 C-63.34765625 34.5703125 -63.34765625 34.5703125 -61.0625 33.125 C-60.22847656 32.59519531 -59.39445312 32.06539063 -58.53515625 31.51953125 C-56.37978102 30.22763454 -54.21215806 29.00299602 -52 27.8125 C-45.77695238 24.44214147 -39.91087417 20.48587115 -33.98828125 16.62109375 C-33.30975098 16.17878418 -32.6312207 15.73647461 -31.93212891 15.28076172 C-30.69424543 14.46019858 -29.4661862 13.6244968 -28.25146484 12.77001953 C-24.29934283 10 -24.29934283 10 -21 10 C-21 9.34 -21 8.68 -21 8 C-18.98828125 6.59765625 -18.98828125 6.59765625 -16.3125 5.0625 C-15.44238281 4.55847656 -14.57226562 4.05445313 -13.67578125 3.53515625 C-12.79277344 3.02855469 -11.90976563 2.52195312 -11 2 C-10.18917969 1.42121094 -9.37835938 0.84242188 -8.54296875 0.24609375 C-5.14428479 -1.4193136 -3.60439694 -1.07951237 0 0 Z " fill="#2a3f3f" transform="translate(149,331)"/>
<path d="M0 0 C1.33333333 1.33333333 2.66666667 2.66666667 4 4 C4.99 4.33 5.98 4.66 7 5 C7.050652 11.35372519 7.08571322 17.70739844 7.10986328 24.0612793 C7.11992951 26.22340847 7.13358354 28.385524 7.15087891 30.54760742 C7.17509978 33.65286625 7.18647681 36.7579453 7.1953125 39.86328125 C7.20563507 40.83211746 7.21595764 41.80095367 7.22659302 42.79914856 C7.22674408 43.6998558 7.22689514 44.60056305 7.22705078 45.52856445 C7.231492 46.32132278 7.23593323 47.11408112 7.24050903 47.93086243 C7 50 7 50 5 53 C3.68 53 2.36 53 1 53 C0.67 53.66 0.34 54.32 0 55 C0 36.85 0 18.7 0 0 Z " fill="#2a3f3f" transform="translate(110,260)"/>
<path d="M0 0 C1.875 1.5625 1.875 1.5625 3 3 C2.38125 3.12375 1.7625 3.2475 1.125 3.375 C-1.19120832 3.87197356 -1.19120832 3.87197356 -3 6 C-6.625 6.125 -6.625 6.125 -10 6 C-10.33 4.68 -10.66 3.36 -11 2 C-7.00271488 -0.93918024 -4.77749251 -1.45401946 0 0 Z " fill="#2a3f3f" transform="translate(149,331)"/>
<path d="M0 0 C1.32 0.33 2.64 0.66 4 1 C3.67 2.32 3.34 3.64 3 5 C3.66 5.33 4.32 5.66 5 6 C2.6875 6.6875 2.6875 6.6875 0 7 C-1.8125 5.5625 -1.8125 5.5625 -3 4 C-2.34 4 -1.68 4 -1 4 C-0.67 2.68 -0.34 1.36 0 0 Z " fill="#2a3f3f" transform="translate(73,356)"/>
<path d="M0 0 C0.66 0 1.32 0 2 0 C1.42424336 3.35250701 0.40693737 4.93818629 -2.0625 7.25 C-2.88427734 8.03117188 -2.88427734 8.03117188 -3.72265625 8.828125 C-4.14417969 9.21484375 -4.56570312 9.6015625 -5 10 C-5.66 9.67 -6.32 9.34 -7 9 C-6.21654285 7.82780457 -5.42297164 6.66236332 -4.625 5.5 C-4.18414062 4.8503125 -3.74328125 4.200625 -3.2890625 3.53125 C-2.65097656 2.77328125 -2.65097656 2.77328125 -2 2 C-1.34 2 -0.68 2 0 2 C0 1.34 0 0.68 0 0 Z " fill="#2a3f3f" transform="translate(42,154)"/>
<path d="M0 0 C0.99 0.33 1.98 0.66 3 1 C-0.08290155 5.22797927 -0.08290155 5.22797927 -2 7 C-4.8125 7.375 -4.8125 7.375 -7 7 C-4.66666667 4.66666667 -2.33333333 2.33333333 0 0 Z " fill="#2a3f3f" transform="translate(61,137)"/>
<path d="M0 0 C0.66 0.33 1.32 0.66 2 1 C2.40729228 3.32156597 2.74438677 5.6568787 3 8 C1.68 7.34 0.36 6.68 -1 6 C-0.67 4.02 -0.34 2.04 0 0 Z " fill="#2a3f3f" transform="translate(274,200)"/>
<path d="M0 0 C1.98 0.99 3.96 1.98 6 3 C5.38125 3.28875 4.7625 3.5775 4.125 3.875 C1.86674235 4.93720042 1.86674235 4.93720042 0 7 C0.2784375 6.1028125 0.2784375 6.1028125 0.5625 5.1875 C1.22093687 2.83591238 1.22093687 2.83591238 0 0 Z " fill="#2a3f3f" transform="translate(146,330)"/>
<path d="M0 0 C0.33 0.66 0.66 1.32 1 2 C0.67 2.66 0.34 3.32 0 4 C-2.32156597 4.40729228 -4.6568787 4.74438677 -7 5 C-4.63707344 2.47411298 -3.33537489 1.11179163 0 0 Z " fill="#2a3f3f" transform="translate(77,127)"/>
</svg>
